<?xml version="1.0" encoding="UTF-8"?>
<svg version="1.1" xmlns="http://www.w3.org/2000/svg" width="500" height="500">
<path d="M0 0 C0.65050956 -0.00205263 1.30101912 -0.00410527 1.97124109 -0.0062201 C4.15413259 -0.01188097 6.33696082 -0.01043398 8.51985836 -0.00901413 C10.0995454 -0.0115983 11.67923179 -0.0146116 13.25891727 -0.01801753 C17.60266078 -0.02608487 21.94638777 -0.02787696 26.29013789 -0.028615 C30.97403603 -0.03046604 35.65792562 -0.0380137 40.34181881 -0.04475021 C50.58580223 -0.05833276 60.82978174 -0.06435829 71.07377267 -0.06876087 C77.47125758 -0.07152375 83.86874097 -0.07576122 90.26622486 -0.08026505 C107.98157214 -0.09245822 125.69691821 -0.10275704 143.41226959 -0.10614014 C144.54613796 -0.1063597 145.68000633 -0.10657927 146.84823435 -0.10680549 C147.98480837 -0.10702377 149.12138238 -0.10724204 150.29239804 -0.10746694 C152.59550798 -0.1079104 154.89861792 -0.10835696 157.20172787 -0.10880661 C158.91535913 -0.10913875 158.91535913 -0.10913875 160.6636092 -0.10947761 C179.16886799 -0.11342438 197.67408738 -0.13087451 216.17933095 -0.15416613 C235.18183729 -0.17789038 254.18432386 -0.1903425 273.18684524 -0.19150805 C283.85459917 -0.19242428 294.52230177 -0.19816318 305.19004154 -0.21632767 C314.27536642 -0.2317432 323.3606241 -0.23684057 332.44595958 -0.22858956 C337.07931626 -0.22468806 341.71253769 -0.22558822 346.34587765 -0.23964691 C350.59310556 -0.25241585 354.84009701 -0.25116214 359.08732473 -0.2390562 C360.6183365 -0.23710436 362.1493652 -0.24015376 363.68035323 -0.24890056 C375.67598448 -0.31305761 386.63178975 1.12866792 397.42121029 6.63142776 C398.09273129 6.97109573 398.76425228 7.3107637 399.4561224 7.66072464 C406.49793581 11.41546606 411.92025893 16.41955036 417.42121029 22.13142776 C418.09667904 22.78756058 418.77214779 23.44369339 419.46808529 24.11970901 C429.44334808 34.42600929 435.5373372 50.49062421 435.55263805 64.71301079 C435.55469069 65.36381994 435.55674332 66.0146291 435.55885816 66.68515974 C435.56451904 68.86906055 435.56307204 71.05289811 435.56165218 73.23680496 C435.56423635 74.8172047 435.56724965 76.39760378 435.57065558 77.97800195 C435.57872291 82.32367608 435.58051501 86.66933368 435.58125305 91.01501441 C435.58310409 95.70093844 435.59065171 100.3868539 435.59738827 105.07277298 C435.61097049 115.32082136 435.61699621 125.56886583 435.62139893 135.81692171 C435.62416169 142.21640894 435.62839912 148.61589465 435.6329031 155.01538086 C435.64509591 172.73501935 435.65539501 190.45465664 435.65877819 208.17429924 C435.65899776 209.30841917 435.65921732 210.44253911 435.65944354 211.61102631 C435.65966182 212.74785578 435.6598801 213.88468526 435.66010499 215.05596411 C435.66054846 217.35960174 435.66099502 219.66323936 435.66144466 221.96687698 C435.66166609 223.10956013 435.66188752 224.25224328 435.66211566 225.4295532 C435.66606303 243.94195407 435.68351514 262.45431556 435.70680419 280.96670122 C435.7305238 299.97485279 435.74298033 318.98298461 435.74414611 337.99115121 C435.74506256 348.66278565 435.75080721 359.33436878 435.76896572 370.00598907 C435.78437496 379.09390438 435.78948231 388.18175254 435.78122762 397.26967843 C435.77732397 401.90493645 435.77823679 406.54005926 435.79228497 411.1753006 C435.80504093 415.42309304 435.80381151 419.67064891 435.79169425 423.9184411 C435.78974019 425.45078097 435.79280223 426.98313769 435.80153862 428.51545389 C435.84759381 437.14322795 435.26261595 444.91717475 432.42121029 453.13142776 C431.87400326 454.77111526 431.87400326 454.77111526 431.31574154 456.44392776 C424.49351306 473.38866854 411.4333706 487.6156786 394.55597591 494.94099808 C386.62601128 498.11542894 379.39518572 500.25364991 370.84242058 500.26285553 C370.19191102 500.26490816 369.54140146 500.2669608 368.87117949 500.26907563 C366.68828799 500.2747365 364.50545976 500.27328951 362.32256222 500.27186966 C360.74287518 500.27445383 359.16318879 500.27746713 357.58350331 500.28087306 C353.23975979 500.2889404 348.89603281 500.29073249 344.55228269 500.29147053 C339.86838454 500.29332157 335.18449496 500.30086923 330.50060177 500.30760574 C320.25661835 500.32118829 310.01263884 500.32721382 299.76864791 500.3316164 C293.371163 500.33437928 286.9736796 500.33861675 280.57619572 500.34312057 C262.86084844 500.35531375 245.14550237 500.36561257 227.43015099 500.36899567 C226.29628262 500.36921523 225.16241424 500.3694348 223.99418623 500.36966102 C222.85761221 500.3698793 221.72103819 500.37009757 220.55002254 500.37032247 C218.2469126 500.37076593 215.94380265 500.37121249 213.64069271 500.37166214 C211.92706145 500.37199428 211.92706145 500.37199428 210.17881138 500.37233314 C191.67355259 500.37627991 173.1683332 500.39373004 154.66308963 500.41702166 C135.66058329 500.44074591 116.65809672 500.45319803 97.65557534 500.45436358 C86.98782141 500.45527981 76.32011881 500.46101871 65.65237904 500.4791832 C56.56705416 500.49459873 47.48179647 500.4996961 38.396461 500.49144509 C33.76310432 500.48754359 29.12988289 500.48844375 24.49654293 500.50250244 C20.24931502 500.51527138 16.00232357 500.51401767 11.75509585 500.50191173 C10.22408407 500.49995989 8.69305538 500.50300929 7.16206735 500.51175609 C-4.8335639 500.57591314 -15.78936917 499.1341876 -26.57878971 493.63142776 C-27.25031071 493.2917598 -27.9218317 492.95209183 -28.61370182 492.60213089 C-35.65551523 488.84738947 -41.07783835 483.84330517 -46.57878971 478.13142776 C-47.59199284 477.14722855 -47.59199284 477.14722855 -48.62566471 476.14314651 C-58.6009275 465.83684624 -64.69491662 449.77223132 -64.71021748 435.54984474 C-64.71227011 434.89903559 -64.71432274 434.24822643 -64.71643758 433.57769579 C-64.72209846 431.39379498 -64.72065146 429.20995742 -64.71923161 427.02605057 C-64.72181577 425.44565083 -64.72482907 423.86525175 -64.72823501 422.28485358 C-64.73630233 417.93917945 -64.73809443 413.59352185 -64.73883247 409.24784112 C-64.74068351 404.56191709 -64.74823113 399.87600163 -64.75496769 395.19008255 C-64.76854991 384.94203417 -64.77457564 374.6939897 -64.77897835 364.44593382 C-64.78174111 358.04644659 -64.78597854 351.64696088 -64.79048252 345.24747467 C-64.80267533 327.52783618 -64.81297443 309.80819889 -64.81635761 292.08855629 C-64.81657718 290.95443636 -64.81679674 289.82031642 -64.81702296 288.65182922 C-64.81724124 287.51499975 -64.81745952 286.37817027 -64.81768441 285.20689142 C-64.81812788 282.90325379 -64.81857444 280.59961617 -64.81902409 278.29597855 C-64.81924552 277.1532954 -64.81946695 276.01061225 -64.81969509 274.83330233 C-64.82364245 256.32090146 -64.84109456 237.80853997 -64.86438361 219.29615431 C-64.88810323 200.28800274 -64.90055975 181.27987092 -64.90172553 162.27170432 C-64.90264198 151.60006988 -64.90838663 140.92848675 -64.92654514 130.25686646 C-64.94195438 121.16895115 -64.94706173 112.08110299 -64.93880704 102.9931771 C-64.9349034 98.35791908 -64.93581621 93.72279627 -64.94986439 89.08755493 C-64.96262035 84.83976249 -64.96139094 80.59220662 -64.94927368 76.34441443 C-64.94731961 74.81207456 -64.95038165 73.27971784 -64.95911804 71.74740164 C-65.00517323 63.11962757 -64.42019538 55.34568078 -61.57878971 47.13142776 C-61.21398502 46.03830276 -60.84918034 44.94517776 -60.47332096 43.81892776 C-53.65109248 26.87418698 -40.59095002 12.64717693 -23.71355534 5.32185745 C-15.7835907 2.14742659 -8.55276514 0.00920562 0 0 Z " fill="#F4EAE5" transform="translate(64.57878971099854,-0.13142776489257813)"/>
<path d="M0 0 C21.86379672 -0.11741363 43.72754059 -0.20526982 65.59158993 -0.25906086 C75.74614514 -0.28471391 85.90050313 -0.31961392 96.05493164 -0.37719727 C104.91767338 -0.4274313 113.78027212 -0.4593844 122.6431523 -0.47044247 C127.32503052 -0.47689441 132.0065001 -0.4917799 136.68824577 -0.52865028 C174.60596544 -0.8156138 209.88734017 2.56891041 238.39453125 30.33203125 C251.60427943 44.26190198 257.85030702 60.42106774 261 79 C261.18691406 79.92039062 261.37382812 80.84078125 261.56640625 81.7890625 C265.13419903 108.21001445 259.57653022 135.83359475 243.3125 157.2109375 C231.44256616 171.52704013 217.30578196 181.12309233 200 188 C204.60016791 195.35143916 209.38662825 202.53228675 214.375 209.625 C222.33158 221.000474 230.14553133 232.46890412 237.93603516 243.95849609 C241.20031042 248.76880379 244.474742 253.57216643 247.75 258.375 C248.35682617 259.26566162 248.96365234 260.15632324 249.58886719 261.07397461 C252.63368693 265.540776 255.68685868 270.00155191 258.75390625 274.453125 C259.35299805 275.32404785 259.95208984 276.1949707 260.56933594 277.09228516 C261.69931993 278.73408543 262.83135613 280.37447588 263.96582031 282.01318359 C264.46823242 282.74359863 264.97064453 283.47401367 265.48828125 284.2265625 C265.92696533 284.86158691 266.36564941 285.49661133 266.81762695 286.15087891 C268.0287174 288.04491133 269.00919091 289.98390357 270 292 C260.24727696 292.32526814 250.49585496 292.57355924 240.738801 292.72537041 C236.20713028 292.79826211 231.67918432 292.89697721 227.1496582 293.05615234 C222.77264763 293.20899403 218.39920161 293.2921107 214.01972771 293.3282814 C212.35473406 293.35402981 210.68992292 293.40432544 209.02646065 293.48022079 C196.40316807 294.03291783 196.40316807 294.03291783 192.48978233 290.72245789 C189.68369396 287.40938802 187.76242557 283.67964962 185.89035225 279.78346634 C184.64266272 277.284217 183.10195167 275.03814834 181.5065918 272.74902344 C180.96540207 271.94728699 180.42421234 271.14555054 179.86662292 270.31951904 C179.31637955 269.50767151 178.76613617 268.69582397 178.19921875 267.859375 C177.59672806 266.96744446 176.99423737 266.07551392 176.37348938 265.15655518 C174.47963264 262.35337096 172.58370109 259.55159878 170.6875 256.75 C168.19061383 253.05782692 165.6946399 249.36503838 163.19921875 245.671875 C162.59237244 244.77390701 161.98552612 243.87593903 161.36029053 242.95075989 C155.97434 234.97486016 150.63012743 226.97155102 145.30172729 218.9571228 C143.16222546 215.74042155 141.01846339 212.52656216 138.875 209.3125 C138.06248006 208.09376329 137.24997753 206.87501498 136.4375 205.65625 C136.03789062 205.05683594 135.63828125 204.45742188 135.2265625 203.83984375 C132.35677083 199.53515625 129.48697917 195.23046875 126.6171875 190.92578125 C126.21338867 190.32056641 125.80958984 189.71535156 125.39355469 189.09179688 C124.36120193 187.54218257 123.33092109 185.99118752 122.30175781 184.43945312 C118.44805469 178.63830614 114.55469349 172.86702789 110.625 167.1171875 C109.69394682 165.75264756 108.76295762 164.38806396 107.83203125 163.0234375 C106.40123766 160.92613132 104.96902938 158.82985813 103.53271484 156.73632812 C102.12172206 154.67865 100.71658662 152.61708203 99.3125 150.5546875 C98.87824707 149.92456757 98.44399414 149.29444763 97.99658203 148.64523315 C95 144.22752301 95 144.22752301 95 142 C95.72059601 141.99413376 96.44119202 141.98826752 97.18362427 141.98222351 C104.03718089 141.92386711 110.89047004 141.85155277 117.74371529 141.76428509 C121.2654801 141.71991257 124.78713798 141.6805881 128.30908203 141.65356445 C132.37560621 141.62212558 136.44154682 141.56735667 140.5078125 141.51171875 C142.36806564 141.50213387 142.36806564 141.50213387 144.26589966 141.49235535 C159.13638073 141.24710315 174.16162285 138.68282091 185.4375 128.25 C195.43742978 117.41674274 195.67279254 105.42841889 195.17041016 91.47802734 C194.51704892 81.97714403 189.90326192 75.28146076 183 69 C172.29375187 60.27886871 158.73969994 58.8113618 145.46191406 59.04858398 C143.06822673 59.0813242 140.67452895 59.11330698 138.28082275 59.14463806 C137.01591255 59.16228651 135.75100235 59.17993496 134.44776154 59.19811821 C127.03309326 59.28858371 119.61791293 59.31559896 112.2027936 59.34670913 C104.36549857 59.38005976 96.53051479 59.43897409 88.69433594 59.5793457 C82.45603272 59.69094352 76.22014936 59.7454707 69.98081756 59.73377854 C66.68370824 59.72966642 63.39361965 59.76200308 60.09741974 59.84631157 C40.07095082 60.33485489 40.07095082 60.33485489 34.94799805 56.43985558 C31.62579059 52.70268875 29.61472989 48.57455209 27.81750011 43.94417095 C26.61502858 41.08446464 24.89480742 38.66491493 23.09375 36.15234375 C22.49973389 35.28730225 21.90571777 34.42226074 21.29370117 33.53100586 C20.70177979 32.67514893 20.1098584 31.81929199 19.5 30.9375 C18.21438493 29.06281457 16.92923043 27.1878132 15.64453125 25.3125 C15.02787598 24.41402344 14.4112207 23.51554687 13.77587891 22.58984375 C11.23294704 18.88137232 8.70066323 15.16620783 6.1875 11.4375 C5.7853125 10.8489624 5.383125 10.2604248 4.96875 9.65405273 C2.86997444 6.52844202 1.34072896 3.50751875 0 0 Z " fill="#0A0C07" transform="translate(127,104)"/>
<path d="M0 0 C8.90522893 1.34613926 16.67442512 11.52880821 22.6640625 17.66015625 C24.7309772 19.73052733 26.84103287 21.66152121 29.0625 23.5625 C35.06273118 28.71592436 40.60895969 34.25924616 45.625 40.375 C48.73654113 44.03306475 51.45909459 45.51725538 56 47 C56 47.99 56 48.98 56 50 C58.31 50.66 60.62 51.32 63 52 C61.51985917 43.22302453 59.50763169 36.15500853 55.20703125 28.328125 C54 26 54 26 54 24 C54.66 24 55.32 24 56 24 C57.31495542 26.60295276 58.62704986 29.20728033 59.9375 31.8125 C60.31068359 32.55048828 60.68386719 33.28847656 61.06835938 34.04882812 C61.42607422 34.76103516 61.78378906 35.47324219 62.15234375 36.20703125 C62.48226318 36.8616333 62.81218262 37.51623535 63.15209961 38.19067383 C64.66024594 41.40889222 65.15856387 44.04965389 65.1875 47.5625 C65.20167969 48.34753906 65.21585937 49.13257813 65.23046875 49.94140625 C65 52 65 52 63 54 C59.875 53.625 59.875 53.625 57 53 C57.49371094 53.51949219 57.98742187 54.03898437 58.49609375 54.57421875 C59.13675781 55.27160156 59.77742188 55.96898437 60.4375 56.6875 C61.07558594 57.37199219 61.71367187 58.05648437 62.37109375 58.76171875 C64.16221098 61.22289422 64.62798558 63.00816574 65 66 C63.02 66.495 63.02 66.495 61 67 C61.27714844 67.60585937 61.55429688 68.21171875 61.83984375 68.8359375 C64.33419105 74.60578001 66.64530124 80.60565134 66 87 C64.69140625 88.78515625 64.69140625 88.78515625 63 90 C62.01 90 61.02 90 60 90 C60.54140625 90.97839844 60.54140625 90.97839844 61.09375 91.9765625 C65.79522863 100.83101392 65.79522863 100.83101392 65 106 C64 107 64 107 60.9375 107.0625 C59.968125 107.041875 58.99875 107.02125 58 107 C58.433125 107.67546875 58.86625 108.3509375 59.3125 109.046875 C59.869375 109.93890625 60.42625 110.8309375 61 111.75 C61.556875 112.63171875 62.11375 113.5134375 62.6875 114.421875 C64 117 64 117 64 121 C58.68972746 119.53967505 54.53669968 117.01679014 50 114 C53.36675009 121.01701597 57.77668463 126.51355583 62.890625 132.30078125 C64.7798394 134.71827598 65.63135959 136.01543049 66 139 C64.02 138.67 62.04 138.34 60 138 C60.3609375 138.68964844 60.721875 139.37929687 61.09375 140.08984375 C64.22672521 146.43411855 65.68471976 150.92456246 65 158 C64 159 64 159 61.0625 159.0625 C60.051875 159.041875 59.04125 159.02125 58 159 C57.34 159 56.68 159 56 159 C56.48210937 159.67546875 56.96421875 160.3509375 57.4609375 161.046875 C58.09257812 161.93890625 58.72421875 162.8309375 59.375 163.75 C60.00148437 164.63171875 60.62796875 165.5134375 61.2734375 166.421875 C65.08278666 172.11004343 65.08278666 172.11004343 64.75 175.6875 C64.37875 176.8321875 64.37875 176.8321875 64 178 C63.34 178.33 62.68 178.66 62 179 C62.28875 179.64066406 62.5775 180.28132812 62.875 180.94140625 C65.12832102 186.19133127 66.71589175 190.27286602 66 196 C65.34 196.66 64.68 197.32 64 198 C60.46782421 197.67889311 57.36550494 197.12183498 54 196 C57.79467228 202.59074659 62.46684801 207.73138824 67.94824219 212.92480469 C70.40217206 215.27292148 71.90805187 216.7241556 73 220 C72.01 220.33 71.02 220.66 70 221 C67.30078125 219.56640625 67.30078125 219.56640625 64.3125 217.5625 C63.31863281 216.90378906 62.32476562 216.24507812 61.30078125 215.56640625 C60.16189453 214.79103516 60.16189453 214.79103516 59 214 C58.81824219 215.32064453 58.81824219 215.32064453 58.6328125 216.66796875 C58.46523437 217.82941406 58.29765625 218.99085938 58.125 220.1875 C57.96257812 221.33605469 57.80015625 222.48460937 57.6328125 223.66796875 C57.05939755 226.68724625 56.25240957 229.20575848 55 232 C55.721875 232.103125 56.44375 232.20625 57.1875 232.3125 C60.39022322 233.0953879 62.42539682 233.92601411 65 236 C65.8125 239.1875 65.8125 239.1875 66 242 C64.35 242.33 62.7 242.66 61 243 C61.28875 243.50789062 61.5775 244.01578125 61.875 244.5390625 C64.19745076 248.84527328 65.61290503 251.97417876 65 257 C64 258 64 258 60.9375 258.0625 C59.968125 258.041875 58.99875 258.02125 58 258 C58.433125 258.75925781 58.86625 259.51851563 59.3125 260.30078125 C59.869375 261.29464844 60.42625 262.28851563 61 263.3125 C61.8353125 264.79169922 61.8353125 264.79169922 62.6875 266.30078125 C64 269 64 269 64 272 C60.70319035 271.34215037 58.15882078 270.10579427 55.25 268.4375 C54.45078125 267.98246094 53.6515625 267.52742188 52.828125 267.05859375 C52.22484375 266.70925781 51.6215625 266.35992187 51 266 C52.54679839 270.84295209 55.33984256 274.24625379 58.5 278.125 C59.49047425 279.35605456 60.48008987 280.58780055 61.46875 281.8203125 C61.90638672 282.35930176 62.34402344 282.89829102 62.79492188 283.45361328 C66 287.56645057 66 287.56645057 66 291 C61.14329827 290.58269656 58.54863925 288.1999142 55.1875 284.9375 C54.68541016 284.46505859 54.18332031 283.99261719 53.66601562 283.50585938 C52.43577211 282.34591548 51.21672935 281.17411185 50 280 C50.99 279.67 51.98 279.34 53 279 C54.82421875 280.21484375 54.82421875 280.21484375 56.6875 281.9375 C57.31011719 282.50339844 57.93273437 283.06929688 58.57421875 283.65234375 C59.04472656 284.09707031 59.51523438 284.54179687 60 285 C59.30132812 284.10796875 58.60265625 283.2159375 57.8828125 282.296875 C56.96336137 281.11472354 56.04410051 279.93242408 55.125 278.75 C54.66480469 278.16347656 54.20460937 277.57695312 53.73046875 276.97265625 C49.1484375 271.0625 49.1484375 271.0625 48 268 C48.375 265.25 48.375 265.25 49 263 C52.95820859 263.56545837 55.6659053 264.80902348 59 267 C58.2575 265.39125 58.2575 265.39125 57.5 263.75 C56.11346089 260.74583192 56 259.54065105 56 256 C58.31 256 60.62 256 63 256 C60.55663852 248.73421454 57.09695361 242.87133365 52.609375 236.6640625 C51 234 51 234 51 230 C51.97850195 228.97895449 52.97980427 227.9793879 54 227 C54.99062524 223.98849927 55.16343356 221.15751742 55.1875 218 C55.20167969 217.154375 55.21585938 216.30875 55.23046875 215.4375 C54.88056097 211.73678047 53.85976219 209.78160199 51.109375 207.28125 C50.33078125 206.6934375 49.5521875 206.105625 48.75 205.5 C36.55589166 196.01763742 25.17497755 185.6529099 14 175 C13.17113281 174.21367187 12.34226562 173.42734375 11.48828125 172.6171875 C2.40848371 163.79681275 2.40848371 163.79681275 0 159 C0.34765625 156.765625 0.34765625 156.765625 1 155 C11.79764422 156.56156407 20.40091208 166.73818089 28 174 C28.73347656 174.69222656 29.46695313 175.38445312 30.22265625 176.09765625 C36.82398031 182.48899784 42.57769876 189.59018581 47.921875 197.05078125 C55.4236161 207.65192212 55.4236161 207.65192212 66 215 C65.40832031 214.43152344 64.81664062 213.86304688 64.20703125 213.27734375 C59.61825101 208.79336436 55.29593105 204.52865853 52 199 C52 197.35 52 195.7 52 194 C55.63 194.33 59.26 194.66 63 195 C62.54011061 188.77058921 61.06735614 184.34841519 58.125 178.875 C57.77308594 178.19824219 57.42117187 177.52148438 57.05859375 176.82421875 C56.04640189 174.87885373 55.02463958 172.93883133 54 171 C51.89030478 166.98355563 50.63054875 164.55656544 51 160 C51 157.37886292 50.68707555 155.49064888 50 153 C53.37462715 153.54723683 55.08235 154.0549 58 156 C59.65549531 156.38499891 61.3222433 156.72793135 63 157 C61.61492659 146.2059796 57.23152524 137.08229291 50 129 C50 128.34 50 127.68 50 127 C53.94139078 128.66751148 56.7892812 131.22710649 60 134 C59.63648438 133.52691406 59.27296875 133.05382812 58.8984375 132.56640625 C57.24541318 130.39204349 55.62011626 128.19898926 54 126 C53.41605469 125.22140625 52.83210938 124.4428125 52.23046875 123.640625 C51.40482422 122.48820312 51.40482422 122.48820312 50.5625 121.3125 C50.04816406 120.60738281 49.53382813 119.90226562 49.00390625 119.17578125 C47.7223032 116.3981435 48.1479493 114.87882218 49 112 C53.12751449 112.60698743 56.3321148 114.03810791 60 116 C59.34 114.9275 58.68 113.855 58 112.75 C56.11704193 109.69019314 56 108.8664136 56 105 C58.31 105 60.62 105 63 105 C61.19734831 98.02974678 58.16363321 92.78400915 54.04907227 86.96240234 C51.67750041 83.50636248 50.45183508 81.22643096 51 77 C52.65 77.33 54.3 77.66 56 78 C56.17015625 78.63808594 56.3403125 79.27617187 56.515625 79.93359375 C56.75796875 80.75988281 57.0003125 81.58617187 57.25 82.4375 C57.59804687 83.67306641 57.59804687 83.67306641 57.953125 84.93359375 C58.80770679 87.19995468 58.80770679 87.19995468 61.109375 87.78515625 C61.73328125 87.85605469 62.3571875 87.92695313 63 88 C61.50725107 76.56868586 58.1776954 67.65829344 52.3671875 57.73828125 C51 55 51 55 50.28515625 51.56640625 C48.52004182 46.66807959 45.64408276 44.67917564 41.5625 41.625 C40.10020988 40.48443979 38.63797043 39.34381461 37.17578125 38.203125 C36.45986816 37.65462891 35.74395508 37.10613281 35.00634766 36.54101562 C26.24724296 29.81340929 18.03825086 22.55835529 10 15 C9.10152344 14.17886719 8.20304687 13.35773438 7.27734375 12.51171875 C6.46394531 11.74472656 5.65054688 10.97773437 4.8125 10.1875 C4.09707031 9.52105469 3.38164063 8.85460937 2.64453125 8.16796875 C0.60525985 5.4796181 0.31728937 3.31969923 0 0 Z " fill="#D37869" transform="translate(84,116)"/>
<path d="M0 0 C10.79764422 1.56156407 19.40091208 11.73818089 27 19 C27.73347656 19.69222656 28.46695313 20.38445312 29.22265625 21.09765625 C35.82398031 27.48899784 41.57769876 34.59018581 46.921875 42.05078125 C54.4236161 52.65192212 54.4236161 52.65192212 65 60 C64.40832031 59.43152344 63.81664062 58.86304688 63.20703125 58.27734375 C58.61825101 53.79336436 54.29593105 49.52865853 51 44 C51 42.35 51 40.7 51 39 C54.63 39.33 58.26 39.66 62 40 C61.45018084 33.95198929 60.09570426 28.69398894 58 23 C58.99 23 59.98 23 61 23 C65.78867543 34.82204247 65.78867543 34.82204247 65 41 C64.01 41.99 64.01 41.99 63 43 C59.46782421 42.67889311 56.36550494 42.12183498 53 41 C56.79467228 47.59074659 61.46684801 52.73138824 66.94824219 57.92480469 C69.40217206 60.27292148 70.90805187 61.7241556 72 65 C70.515 65.495 70.515 65.495 69 66 C66.30078125 64.56640625 66.30078125 64.56640625 63.3125 62.5625 C62.31863281 61.90378906 61.32476562 61.24507813 60.30078125 60.56640625 C59.54152344 60.04949219 58.78226563 59.53257812 58 59 C57.87882812 59.88042969 57.75765625 60.76085937 57.6328125 61.66796875 C57.46523437 62.82941406 57.29765625 63.99085938 57.125 65.1875 C56.88136719 66.91033203 56.88136719 66.91033203 56.6328125 68.66796875 C56.05939755 71.68724625 55.25240957 74.20575848 54 77 C54.721875 77.103125 55.44375 77.20625 56.1875 77.3125 C59.39022322 78.0953879 61.42539682 78.92601411 64 81 C64.8125 84.1875 64.8125 84.1875 65 87 C63.35 87.33 61.7 87.66 60 88 C60.433125 88.76183594 60.433125 88.76183594 60.875 89.5390625 C63.19745076 93.84527328 64.61290503 96.97417876 64 102 C63 103 63 103 59.9375 103.0625 C58.968125 103.041875 57.99875 103.02125 57 103 C57.6496875 104.13888672 57.6496875 104.13888672 58.3125 105.30078125 C58.869375 106.29464844 59.42625 107.28851563 60 108.3125 C60.556875 109.29863281 61.11375 110.28476562 61.6875 111.30078125 C63 114 63 114 63 117 C59.70319035 116.34215037 57.15882078 115.10579427 54.25 113.4375 C53.45078125 112.98246094 52.6515625 112.52742188 51.828125 112.05859375 C51.22484375 111.70925781 50.6215625 111.35992187 50 111 C51.54679839 115.84295209 54.33984256 119.24625379 57.5 123.125 C58.49047425 124.35605456 59.48008987 125.58780055 60.46875 126.8203125 C61.12520508 127.62879639 61.12520508 127.62879639 61.79492188 128.45361328 C65 132.56645057 65 132.56645057 65 136 C60.14329827 135.58269656 57.54863925 133.1999142 54.1875 129.9375 C53.68541016 129.46505859 53.18332031 128.99261719 52.66601562 128.50585938 C51.43577211 127.34591548 50.21672935 126.17411185 49 125 C49.99 124.67 50.98 124.34 52 124 C53.82421875 125.21484375 53.82421875 125.21484375 55.6875 126.9375 C56.62142578 127.78634766 56.62142578 127.78634766 57.57421875 128.65234375 C58.04472656 129.09707031 58.51523438 129.54179687 59 130 C58.30132812 129.10796875 57.60265625 128.2159375 56.8828125 127.296875 C55.96336137 126.11472354 55.04410051 124.93242408 54.125 123.75 C53.66480469 123.16347656 53.20460937 122.57695312 52.73046875 121.97265625 C48.1484375 116.0625 48.1484375 116.0625 47 113 C47.375 110.25 47.375 110.25 48 108 C51.95820859 108.56545837 54.6659053 109.80902348 58 112 C57.505 110.9275 57.01 109.855 56.5 108.75 C55.11346089 105.74583192 55 104.54065105 55 101 C57.31 101 59.62 101 62 101 C59.55663852 93.73421454 56.09695361 87.87133365 51.609375 81.6640625 C50 79 50 79 50 75 C50.97850195 73.97895449 51.97980427 72.9793879 53 72 C53.99062524 68.98849927 54.16343356 66.15751742 54.1875 63 C54.20167969 62.154375 54.21585938 61.30875 54.23046875 60.4375 C53.88056097 56.73678047 52.85976219 54.78160199 50.109375 52.28125 C49.33078125 51.6934375 48.5521875 51.105625 47.75 50.5 C35.55589166 41.01763742 24.17497755 30.6529099 13 20 C12.17113281 19.21367187 11.34226562 18.42734375 10.48828125 17.6171875 C1.40848371 8.79681275 1.40848371 8.79681275 -1 4 C-0.65234375 1.765625 -0.65234375 1.765625 0 0 Z " fill="#D27767" transform="translate(85,271)"/>
<path d="M0 0 C8.90522893 1.34613926 16.67442512 11.52880821 22.6640625 17.66015625 C24.7309772 19.73052733 26.84103287 21.66152121 29.0625 23.5625 C36.10578844 29.61177596 43.63693672 36.37789721 49 44 C49 44.99 49 45.98 49 47 C42.21259306 42.84337095 36.25620901 37.95918818 30.25 32.77734375 C27.43654974 30.3527242 24.54354376 28.04748459 21.625 25.75 C16.82391651 21.82248643 12.31964724 17.63412294 7.875 13.3125 C7.21064941 12.6824707 6.54629883 12.05244141 5.86181641 11.40332031 C2.20072287 7.77569198 0.14961387 5.41103514 0 0 Z " fill="#D27767" transform="translate(84,116)"/>
<path d="M0 0 C1.125 1.6875 1.125 1.6875 2 4 C1.125 6.75 1.125 6.75 0 9 C0.721875 9.103125 1.44375 9.20625 2.1875 9.3125 C5.39022322 10.0953879 7.42539682 10.92601411 10 13 C10.8125 16.1875 10.8125 16.1875 11 19 C9.35 19.33 7.7 19.66 6 20 C6.28875 20.50789063 6.5775 21.01578125 6.875 21.5390625 C9.19745076 25.84527328 10.61290503 28.97417876 10 34 C9 35 9 35 5.9375 35.0625 C4.968125 35.041875 3.99875 35.02125 3 35 C3.433125 35.75925781 3.86625 36.51851563 4.3125 37.30078125 C5.1478125 38.79158203 5.1478125 38.79158203 6 40.3125 C6.556875 41.29863281 7.11375 42.28476562 7.6875 43.30078125 C9 46 9 46 9 49 C5.70319035 48.34215037 3.15882078 47.10579427 0.25 45.4375 C-0.54921875 44.98246094 -1.3484375 44.52742188 -2.171875 44.05859375 C-3.07679688 43.53458984 -3.07679688 43.53458984 -4 43 C-2.45320161 47.84295209 0.33984256 51.24625379 3.5 55.125 C4.49047425 56.35605456 5.48008987 57.58780055 6.46875 58.8203125 C6.90638672 59.35930176 7.34402344 59.89829102 7.79492188 60.45361328 C11 64.56645057 11 64.56645057 11 68 C6.14329827 67.58269656 3.54863925 65.1999142 0.1875 61.9375 C-0.31458984 61.46505859 -0.81667969 60.99261719 -1.33398438 60.50585938 C-2.56422789 59.34591548 -3.78327065 58.17411185 -5 57 C-3.515 56.505 -3.515 56.505 -2 56 C-0.17578125 57.21484375 -0.17578125 57.21484375 1.6875 58.9375 C2.31011719 59.50339844 2.93273437 60.06929688 3.57421875 60.65234375 C4.04472656 61.09707031 4.51523438 61.54179687 5 62 C4.30132812 61.10796875 3.60265625 60.2159375 2.8828125 59.296875 C1.96336137 58.11472354 1.04410051 56.93242408 0.125 55.75 C-0.33519531 55.16347656 -0.79539063 54.57695312 -1.26953125 53.97265625 C-5.8515625 48.0625 -5.8515625 48.0625 -7 45 C-6.625 42.25 -6.625 42.25 -6 40 C-2.04179141 40.56545837 0.6659053 41.80902348 4 44 C3.505 42.9275 3.01 41.855 2.5 40.75 C1.11346089 37.74583192 1 36.54065105 1 33 C3.31 33 5.62 33 8 33 C5.55663852 25.73421454 2.09695361 19.87133365 -2.390625 13.6640625 C-4 11 -4 11 -4 7 C-3.02149805 5.97895449 -2.02019573 4.9793879 -1 4 C-0.28552357 1.89667109 -0.28552357 1.89667109 0 0 Z " fill="#D27767" transform="translate(139,339)"/>
<path d="M0 0 C17.42088185 3.22166993 34.17193344 27.53511586 44 41 C43.505 41.99 43.505 41.99 43 43 C42.3709375 42.43152344 41.741875 41.86304688 41.09375 41.27734375 C37.12737204 37.69924074 33.16099363 34.1245641 29.125 30.625 C21.52780762 23.99083201 14.09404064 17.16926006 6.875 10.125 C5.98554687 9.26132812 5.09609375 8.39765625 4.1796875 7.5078125 C2.0365839 5.04209115 0.98528846 3.08871327 0 0 Z " fill="#F3E4DF" transform="translate(87,274)"/>
<path d="M0 0 C4.64403404 5.69949632 5.64221093 10.77139322 5 18 C4 19 4 19 1.0625 19.0625 C-0.4534375 19.0315625 -0.4534375 19.0315625 -2 19 C-2.66 19 -3.32 19 -4 19 C-3.51789063 19.67546875 -3.03578125 20.3509375 -2.5390625 21.046875 C-1.90742188 21.93890625 -1.27578125 22.8309375 -0.625 23.75 C0.00148437 24.63171875 0.62796875 25.5134375 1.2734375 26.421875 C5.11483254 32.15789474 5.11483254 32.15789474 4.625 35.75 C4.41875 36.4925 4.2125 37.235 4 38 C2.02 38 0.04 38 -2 38 C-3.17993203 35.94414903 -4.34378455 33.88163459 -5.5 31.8125 C-6.1496875 30.66394531 -6.799375 29.51539063 -7.46875 28.33203125 C-8.9577089 25.09202629 -9.33586265 23.47257993 -9 20 C-9 17.37886292 -9.31292445 15.49064888 -10 13 C-6.62537285 13.54723683 -4.91765 14.0549 -2 16 C-0.34450469 16.38499891 1.3222433 16.72793135 3 17 C2.86722656 16.35933594 2.73445312 15.71867187 2.59765625 15.05859375 C1.57506994 10.05016007 0.66115853 5.06888206 0 0 Z " fill="#D27767" transform="translate(144,256)"/>
<path d="M0 0 C0.66 0.33 1.32 0.66 2 1 C1.67 2.65 1.34 4.3 1 6 C-0.98 6 -2.96 6 -5 6 C-4.566875 6.67546875 -4.13375 7.3509375 -3.6875 8.046875 C-3.130625 8.93890625 -2.57375 9.8309375 -2 10.75 C-1.443125 11.63171875 -0.88625 12.5134375 -0.3125 13.421875 C1 16 1 16 1 20 C-4.31027254 18.53967505 -8.46330032 16.01679014 -13 13 C-9.63324991 20.01701597 -5.22331537 25.51355583 -0.109375 31.30078125 C1.7798394 33.71827598 2.63135959 35.01543049 3 38 C1.02 37.67 -0.96 37.34 -3 37 C-3.33 38.32 -3.66 39.64 -4 41 C-5.12743666 39.25156882 -6.2518542 37.5011906 -7.375 35.75 C-8.00148437 34.77546875 -8.62796875 33.8009375 -9.2734375 32.796875 C-10.65134852 30.56478385 -11.88312642 28.36912578 -13 26 C-9.05860922 27.66751148 -6.2107188 30.22710649 -3 33 C-3.36351562 32.52691406 -3.72703125 32.05382812 -4.1015625 31.56640625 C-5.75458682 29.39204349 -7.37988374 27.19898926 -9 25 C-9.58394531 24.22140625 -10.16789063 23.4428125 -10.76953125 22.640625 C-11.31996094 21.87234375 -11.87039062 21.1040625 -12.4375 20.3125 C-13.20900391 19.25482422 -13.20900391 19.25482422 -13.99609375 18.17578125 C-15.2776968 15.3981435 -14.8520507 13.87882218 -14 11 C-9.87248551 11.60698743 -6.6678852 13.03810791 -3 15 C-3.66 13.9275 -4.32 12.855 -5 11.75 C-6.88295807 8.69019314 -7 7.8664136 -7 4 C-4.69 4 -2.38 4 0 4 C0 2.68 0 1.36 0 0 Z " fill="#D27566" transform="translate(147,217)"/>
<path d="M0 0 C1.125 1.6875 1.125 1.6875 2 4 C1.125 6.75 1.125 6.75 0 9 C0.721875 9.103125 1.44375 9.20625 2.1875 9.3125 C5.39022322 10.0953879 7.42539682 10.92601411 10 13 C10.8125 16.1875 10.8125 16.1875 11 19 C8.69 19.66 6.38 20.32 4 21 C0.74063696 17.97344861 -1.75588381 14.84705633 -4 11 C-4 7 -4 7 -2.5625 5.5 C-2.046875 5.005 -1.53125 4.51 -1 4 C-0.28552357 1.89667109 -0.28552357 1.89667109 0 0 Z " fill="#D17464" transform="translate(139,339)"/>
<path d="M0 0 C0.66 0 1.32 0 2 0 C3.31495542 2.60295276 4.62704986 5.20728033 5.9375 7.8125 C6.31068359 8.55048828 6.68386719 9.28847656 7.06835938 10.04882812 C7.42607422 10.76103516 7.78378906 11.47324219 8.15234375 12.20703125 C8.6472229 13.18893433 8.6472229 13.18893433 9.15209961 14.19067383 C10.66024594 17.40889222 11.15856387 20.04965389 11.1875 23.5625 C11.20167969 24.34753906 11.21585938 25.13257813 11.23046875 25.94140625 C11 28 11 28 9 30 C5.875 29.625 5.875 29.625 3 29 C4.32 30.65 5.64 32.3 7 34 C6.01 34 5.02 34 4 34 C1.8125 31.5 1.8125 31.5 0 29 C-0.99 29.66 -1.98 30.32 -3 31 C-3.66 28.03 -4.32 25.06 -5 22 C-2.69 22.33 -0.38 22.66 2 23 C2 23.99 2 24.98 2 26 C4.31 26.66 6.62 27.32 9 28 C7.51985917 19.22302453 5.50763169 12.15500853 1.20703125 4.328125 C0 2 0 2 0 0 Z " fill="#D17363" transform="translate(138,140)"/>
<path d="M0 0 C0.7425 0.804375 1.485 1.60875 2.25 2.4375 C4.65636666 5.10455086 4.65636666 5.10455086 7.125 5.5 C9 6 9 6 10.75 8.375 C12 11 12 11 12 14 C10.68 14.33 9.36 14.66 8 15 C8.33 16.32 8.66 17.64 9 19 C8.34 19.33 7.68 19.66 7 20 C5.84583494 17.94178919 4.70164153 15.87900528 3.5625 13.8125 C2.92441406 12.66394531 2.28632813 11.51539063 1.62890625 10.33203125 C0.2042479 7.41780206 -0.6867873 5.20615909 -1 2 C-0.67 1.34 -0.34 0.68 0 0 Z " fill="#D27666" transform="translate(137,168)"/>
<path d="M0 0 C6.48047009 4.40671966 11.80136675 9.64582761 17.25048828 15.23681641 C17.83556152 15.8354248 18.42063477 16.4340332 19.0234375 17.05078125 C19.54856934 17.59387939 20.07370117 18.13697754 20.61474609 18.6965332 C21.98786647 20.11361544 21.98786647 20.11361544 24 21 C24 21.66 24 22.32 24 23 C24.88945313 23.38285156 24.88945313 23.38285156 25.796875 23.7734375 C28.21224538 25.11816498 29.51211706 26.49214367 31.25 28.625 C32.03117187 29.57246094 32.03117187 29.57246094 32.828125 30.5390625 C33.40820312 31.26222656 33.40820312 31.26222656 34 32 C31.22754151 30.71465943 29.01180836 29.32333396 26.71484375 27.3125 C26.10680908 26.78333984 25.49877441 26.25417969 24.87231445 25.70898438 C24.23382568 25.14501953 23.59533691 24.58105469 22.9375 24 C22.27645264 23.42056641 21.61540527 22.84113281 20.93432617 22.24414062 C18.95135023 20.50151814 16.97484371 18.75182866 15 17 C14.43635742 16.50242188 13.87271484 16.00484375 13.29199219 15.4921875 C3.50731077 6.83767002 3.50731077 6.83767002 0 2 C0 1.34 0 0.68 0 0 Z " fill="#F0DCD5" transform="translate(86,118)"/>
<path d="M0 0 C0.66 0 1.32 0 2 0 C3.322644 2.53682516 4.63317361 5.07877651 5.9375 7.625 C6.31068359 8.33785156 6.68386719 9.05070313 7.06835938 9.78515625 C9.12409289 13.82254279 10.79528826 17.39068403 11 22 C10.0625 24.375 10.0625 24.375 9 26 C8.77957031 24.90945312 8.77957031 24.90945312 8.5546875 23.796875 C6.97940492 16.73526345 4.64106122 10.76517919 1.20703125 4.3984375 C0 2 0 2 0 0 Z " fill="#D27768" transform="translate(138,140)"/>
<path d="M0 0 C5.75 0.75 5.75 0.75 8 3 C8.625 5.625 8.625 5.625 9 8 C6.69 8.33 4.38 8.66 2 9 C0.4375 7.3125 0.4375 7.3125 -1 5 C-0.6875 2.25 -0.6875 2.25 0 0 Z " fill="#D68577" transform="translate(140,351)"/>
<path d="M0 0 C3.89941749 1.29980583 4.53257489 2.93254102 6.6875 6.375 C7.31011719 7.35210937 7.93273437 8.32921875 8.57421875 9.3359375 C10 12 10 12 10 15 C6.17090709 13.52663164 4.78616322 11.56408372 2.75 8.0625 C2.22921875 7.18722656 1.7084375 6.31195313 1.171875 5.41015625 C0 3 0 3 0 0 Z " fill="#F1DFD9" transform="translate(137,277)"/>
<path d="M0 0 C3.34865457 1.11621819 3.71566145 1.67474229 5.5625 4.5 C7.31619395 7.25536594 7.31619395 7.25536594 10 9 C9.67 7.02 9.34 5.04 9 3 C10.5625 4.1875 10.5625 4.1875 12 6 C11.6875 8.6875 11.6875 8.6875 11 11 C9.02 11 7.04 11 5 11 C4.16151196 9.54462432 3.32936066 8.08559627 2.5 6.625 C1.80390625 5.40683594 1.80390625 5.40683594 1.09375 4.1640625 C0 2 0 2 0 0 Z " fill="#D06F5F" transform="translate(137,283)"/>
<path d="M0 0 C4.19914831 0.55988644 6.85996274 1.95055161 10.3125 4.375 C11.19550781 4.98085938 12.07851562 5.58671875 12.98828125 6.2109375 C13.65214844 6.80132812 14.31601563 7.39171875 15 8 C15 8.99 15 9.98 15 11 C14.39671875 10.57847656 13.7934375 10.15695312 13.171875 9.72265625 C12.37265625 9.17480469 11.5734375 8.62695312 10.75 8.0625 C9.96109375 7.51722656 9.1721875 6.97195313 8.359375 6.41015625 C5.08517695 4.45322662 2.79365291 4 -1 4 C-0.67 2.68 -0.34 1.36 0 0 Z " fill="#D37A6A" transform="translate(85,271)"/>
<path d="M0 0 C3.59634744 3.49359465 6.83451967 7.11098131 10 11 C9.01 11.495 9.01 11.495 8 12 C4.38430095 9.36151691 1.97164786 7.04706667 0 3 C0 2.01 0 1.02 0 0 Z " fill="#F0DCD6" transform="translate(137,168)"/>
<path d="M0 0 C0.66 0 1.32 0 2 0 C3.42705634 5.30723432 4.4002792 9.53891111 3 15 C2.67 15 2.34 15 2 15 C1.66048381 13.43883181 1.32867456 11.87598662 1 10.3125 C0.814375 9.44238281 0.62875 8.57226562 0.4375 7.67578125 C0.01027953 5.06287036 -0.07616201 2.64186962 0 0 Z " fill="#D7887A" transform="translate(145,187)"/>
<path d="M0 0 C2.875 0.25 2.875 0.25 6 1 C7.375 3.0625 7.375 3.0625 8 5 C5.125 4.75 5.125 4.75 2 4 C0.625 1.9375 0.625 1.9375 0 0 Z " fill="#F2E1DB" transform="translate(140,351)"/>
<path d="M0 0 C2.16750011 3.25125017 2.68533358 5.14533632 3 9 C2.015625 11.19140625 2.015625 11.19140625 1 13 C0.63901937 11.02206479 0.28638652 9.04260427 -0.0625 7.0625 C-0.25972656 5.96035156 -0.45695313 4.85820312 -0.66015625 3.72265625 C-0.77230469 2.82417969 -0.88445312 1.92570313 -1 1 C-0.67 0.67 -0.34 0.34 0 0 Z " fill="#D58071" transform="translate(146,153)"/>
<path d="M0 0 C5.32697239 1.45281065 8.36402802 5.08111378 12 9 C8.0557333 9 7.17603973 7.68625863 4.3125 5.0625 C3.50425781 4.33160156 2.69601563 3.60070312 1.86328125 2.84765625 C1.24839844 2.23792969 0.63351563 1.62820312 0 1 C0 0.67 0 0.34 0 0 Z " fill="#EAC8C0" transform="translate(108,140)"/>
<path d="M0 0 C3.59391114 1.33488128 6.75490696 2.96022723 10 5 C9.67 5.66 9.34 6.32 9 7 C5.13066838 6.42676569 2.84777943 4.61046448 0 2 C0 1.34 0 0.68 0 0 Z " fill="#D47E70" transform="translate(123,312)"/>
<path d="M0 0 C3.25696479 0.41755959 4.63443291 0.63443291 7 3 C6.01 3.495 6.01 3.495 5 4 C2.875 3.0625 2.875 3.0625 1 2 C1.33 3.32 1.66 4.64 2 6 C1.01 6.495 1.01 6.495 0 7 C-0.38133299 5.0085944 -0.71325582 3.00720923 -1 1 C-0.67 0.67 -0.34 0.34 0 0 Z " fill="#D07161" transform="translate(133,228)"/>
<path d="M0 0 C1.125 1.6875 1.125 1.6875 2 4 C1.125 6.75 1.125 6.75 0 9 C0.99 9.33 1.98 9.66 3 10 C1.68 10 0.36 10 -1 10 C-1 9.34 -1 8.68 -1 8 C-1.66 7.67 -2.32 7.34 -3 7 C-2.01 4.69 -1.02 2.38 0 0 Z " fill="#D68374" transform="translate(139,339)"/>
<path d="M0 0 C2.96052484 3.36423277 3.92289822 6.69159287 5 11 C2 10 2 10 0.8125 7.75 C0.00061706 5.00208853 -0.16260121 2.84552111 0 0 Z " fill="#D47D6E" transform="translate(144,256)"/>
<path d="M0 0 C2.475 0.495 2.475 0.495 5 1 C4.67 2.65 4.34 4.3 4 6 C1 4 1 4 0.3125 1.875 C0.209375 1.25625 0.10625 0.6375 0 0 Z " fill="#DA9285" transform="translate(135,193)"/>
<path d="M0 0 C1.65 0.33 3.3 0.66 5 1 C3.6875 2.5 3.6875 2.5 2 4 C1.01 4 0.02 4 -1 4 C-0.67 2.68 -0.34 1.36 0 0 Z " fill="#D88B7D" transform="translate(85,271)"/>
</svg>
